<svg width="26" height="22" viewBox="0 0 26 22" fill="none" xmlns="http://www.w3.org/2000/svg">
<path d="M5.86328 21.8555H0.765625L5.93359 11.0977H0.765625V0.585938H11.2773V11.0977L5.86328 21.8555ZM19.9961 21.8555H14.8633L20.0664 11.0977H14.8633V0.585938H25.375V11.0977L19.9961 21.8555Z" fill="#FFC812"/>
<path d="M5.86328 21.8555V22.8555H6.47951L6.75654 22.305L5.86328 21.8555ZM0.765625 21.8555L-0.13576 21.4225L-0.824171 22.8555H0.765625V21.8555ZM5.93359 11.0977L6.83498 11.5307L7.52339 10.0977H5.93359V11.0977ZM0.765625 11.0977H-0.234375V12.0977H0.765625V11.0977ZM0.765625 0.585938V-0.414062H-0.234375V0.585938H0.765625ZM11.2773 0.585938H12.2773V-0.414062H11.2773V0.585938ZM11.2773 11.0977L12.1706 11.5472L12.2773 11.3351V11.0977H11.2773ZM19.9961 21.8555V22.8555H20.6141L20.8905 22.3027L19.9961 21.8555ZM14.8633 21.8555L13.963 21.4201L13.2688 22.8555H14.8633V21.8555ZM20.0664 11.0977L20.9666 11.5331L21.6609 10.0977H20.0664V11.0977ZM14.8633 11.0977H13.8633V12.0977H14.8633V11.0977ZM14.8633 0.585938V-0.414062H13.8633V0.585938H14.8633ZM25.375 0.585938H26.375V-0.414062H25.375V0.585938ZM25.375 11.0977L26.2694 11.5449L26.375 11.3337V11.0977H25.375ZM5.86328 20.8555H0.765625V22.8555H5.86328V20.8555ZM1.66701 22.2885L6.83498 11.5307L5.03221 10.6646L-0.13576 21.4225L1.66701 22.2885ZM5.93359 10.0977H0.765625V12.0977H5.93359V10.0977ZM1.76562 11.0977V0.585938H-0.234375V11.0977H1.76562ZM0.765625 1.58594H11.2773V-0.414062H0.765625V1.58594ZM10.2773 0.585938V11.0977H12.2773V0.585938H10.2773ZM10.3841 10.6481L4.97002 21.4059L6.75654 22.305L12.1706 11.5472L10.3841 10.6481ZM19.9961 20.8555H14.8633V22.8555H19.9961V20.8555ZM15.7635 22.2909L20.9666 11.5331L19.1662 10.6622L13.963 21.4201L15.7635 22.2909ZM20.0664 10.0977H14.8633V12.0977H20.0664V10.0977ZM15.8633 11.0977V0.585938H13.8633V11.0977H15.8633ZM14.8633 1.58594H25.375V-0.414062H14.8633V1.58594ZM24.375 0.585938V11.0977H26.375V0.585938H24.375ZM24.4806 10.6504L19.1017 21.4083L20.8905 22.3027L26.2694 11.5449L24.4806 10.6504Z" fill="black"/>
</svg>
