<svg width="26" height="22" viewBox="0 0 26 22" fill="none" xmlns="http://www.w3.org/2000/svg">
<path d="M20.2773 0.585938H25.375L20.207 11.3438H25.375V21.8555H14.8633V11.3438L20.2773 0.585938ZM6.14453 0.585938H11.2773L6.07422 11.3438H11.2773V21.8555H0.765625V11.3438L6.14453 0.585938Z" fill="#FFC812"/>
<path d="M20.2773 0.585938V-0.414062H19.6611L19.3841 0.13639L20.2773 0.585938ZM25.375 0.585938L26.2764 1.01896L26.9648 -0.414062H25.375V0.585938ZM20.207 11.3438L19.3056 10.9107L18.6172 12.3438H20.207V11.3438ZM25.375 11.3438H26.375V10.3438H25.375V11.3438ZM25.375 21.8555V22.8555H26.375V21.8555H25.375ZM14.8633 21.8555H13.8633V22.8555H14.8633V21.8555ZM14.8633 11.3438L13.97 10.8942L13.8633 11.1063V11.3438H14.8633ZM6.14453 0.585938V-0.414062H5.5265L5.2501 0.138724L6.14453 0.585938ZM11.2773 0.585938L12.1776 1.02134L12.8718 -0.414062H11.2773V0.585938ZM6.07422 11.3438L5.17399 10.9083L4.47974 12.3438H6.07422V11.3438ZM11.2773 11.3438H12.2773V10.3438H11.2773V11.3438ZM11.2773 21.8555V22.8555H12.2773V21.8555H11.2773ZM0.765625 21.8555H-0.234375V22.8555H0.765625V21.8555ZM0.765625 11.3438L-0.128802 10.8965L-0.234375 11.1077V11.3438H0.765625ZM20.2773 1.58594H25.375V-0.414062H20.2773V1.58594ZM24.4736 0.152919L19.3056 10.9107L21.1084 11.7768L26.2764 1.01896L24.4736 0.152919ZM20.207 12.3438H25.375V10.3438H20.207V12.3438ZM24.375 11.3438V21.8555H26.375V11.3438H24.375ZM25.375 20.8555H14.8633V22.8555H25.375V20.8555ZM15.8633 21.8555V11.3438H13.8633V21.8555H15.8633ZM15.7565 11.7933L21.1706 1.03548L19.3841 0.13639L13.97 10.8942L15.7565 11.7933ZM6.14453 1.58594H11.2773V-0.414062H6.14453V1.58594ZM10.3771 0.15053L5.17399 10.9083L6.97445 11.7792L12.1776 1.02134L10.3771 0.15053ZM6.07422 12.3438H11.2773V10.3438H6.07422V12.3438ZM10.2773 11.3438V21.8555H12.2773V11.3438H10.2773ZM11.2773 20.8555H0.765625V22.8555H11.2773V20.8555ZM1.76562 21.8555V11.3438H-0.234375V21.8555H1.76562ZM1.66005 11.791L7.03896 1.03315L5.2501 0.138724L-0.128802 10.8965L1.66005 11.791Z" fill="black"/>
</svg>
